<svg xmlns="http://www.w3.org/2000/svg" width="415" height="200" viewBox="0 0 415 200" role="img" aria-label="Most used languages"><title>Most used languages</title><style>text{font-family:-apple-system,BlinkMacSystemFont,'Segoe UI',Helvetica,Arial,sans-serif;fill:#e6edf3}.m{fill:#7d8590}.n{font-family:ui-monospace,SFMono-Regular,'SF Mono',Menlo,Consolas,monospace}.h{font-size:11px;letter-spacing:.12em;fill:#7d8590}</style><rect x=".5" y=".5" width="414" height="199" rx="10" fill="#0d1117" stroke="#21262d"/><text x="28" y="40" class="h">LANGUAGES</text><clipPath id="bar"><rect x="28" y="58" width="359" height="10" rx="5"/></clipPath><g clip-path="url(#bar)"><rect x="28.00" y="58" width="188.66" height="10" fill="#e6edf3"/><rect x="216.16" y="58" width="70.25" height="10" fill="#b1bac4"/><rect x="285.91" y="58" width="45.54" height="10" fill="#6e7681"/><rect x="330.95" y="58" width="35.83" height="10" fill="#3d444d"/><rect x="366.28" y="58" width="14.09" height="10" fill="#7d8590"/><rect x="379.87" y="58" width="3.64" height="10" fill="#21262d"/><rect x="383.02" y="58" width="4.48" height="10" fill="#161b22"/></g><circle cx="33" cy="96" r="5" fill="#e6edf3" stroke="#21262d"/><text x="46" y="100" font-size="13">Rust</text><text x="198" y="100" class="m n" font-size="12" text-anchor="end">52.4%</text><circle cx="219" cy="96" r="5" fill="#b1bac4" stroke="#21262d"/><text x="232" y="100" font-size="13">Python</text><text x="384" y="100" class="m n" font-size="12" text-anchor="end">19.4%</text><circle cx="33" cy="124" r="5" fill="#6e7681" stroke="#21262d"/><text x="46" y="128" font-size="13">JavaScript</text><text x="198" y="128" class="m n" font-size="12" text-anchor="end">12.5%</text><circle cx="219" cy="124" r="5" fill="#3d444d" stroke="#21262d"/><text x="232" y="128" font-size="13">TypeScript</text><text x="384" y="128" class="m n" font-size="12" text-anchor="end">9.8%</text><circle cx="33" cy="152" r="5" fill="#7d8590" stroke="#21262d"/><text x="46" y="156" font-size="13">Vue</text><text x="198" y="156" class="m n" font-size="12" text-anchor="end">3.8%</text><circle cx="219" cy="152" r="5" fill="#21262d" stroke="#21262d"/><text x="232" y="156" font-size="13">Shell</text><text x="384" y="156" class="m n" font-size="12" text-anchor="end">0.9%</text><circle cx="33" cy="180" r="5" fill="#161b22" stroke="#21262d"/><text x="46" y="184" font-size="13">Other</text><text x="198" y="184" class="m n" font-size="12" text-anchor="end">1.1%</text></svg>